<svg width="303" height="301" viewBox="0 0 303 301" fill="none" xmlns="http://www.w3.org/2000/svg">
<rect x="12" y="11" width="279" height="279" rx="139.5" fill="url(#paint0_linear_153_907)"/>
<rect x="14.5" y="13.5" width="274" height="274" rx="137" stroke="black" stroke-opacity="0.33" stroke-width="5"/>
<rect x="37" y="36" width="229" height="229" rx="114.5" fill="#E2EDFD"/>
<rect x="39.5" y="38.5" width="224" height="224" rx="112" stroke="black" stroke-opacity="0.6" stroke-width="5"/>
<rect x="64.5" y="65.5" width="170" height="170" rx="85" fill="black" stroke="black" stroke-width="5"/>
<path d="M95.5 132.305C95.5 103.694 118.694 80.5 147.305 80.5H152.631C180.483 80.5 203.318 102.586 204.246 130.423C205.178 158.382 183.679 182 155.756 183.692L150.439 184.014C120.65 185.82 95.5 162.148 95.5 132.305Z" fill="#D9D9D9" stroke="black" stroke-width="5"/>
<path d="M128 134C128 122.402 137.402 113 149 113C160.598 113 170 122.402 170 134C170 145.598 160.598 155 149 155C137.402 155 128 145.598 128 134Z" fill="black"/>
<path d="M162.181 149.297L160.753 148.53L159.47 149.522L160.998 151.5C159.47 149.522 159.469 149.522 159.468 149.523L159.466 149.525L159.459 149.53L159.437 149.547L159.357 149.61C159.289 149.664 159.19 149.742 159.063 149.844C158.81 150.047 158.443 150.346 157.982 150.733C157.059 151.506 155.754 152.635 154.204 154.073C151.109 156.946 147.015 161.07 143.041 166.069C135.186 175.951 127.367 189.796 129.525 204.366C131.688 218.962 142.607 228.128 151.516 231.12C153.766 231.876 155.988 232.274 157.997 232.222C159.977 232.17 161.983 231.669 163.505 230.37C165.123 228.989 165.849 227.002 165.714 224.768C165.585 222.632 164.685 220.262 163.137 217.705C160.8 213.845 160.86 209.015 162.732 203.508C164.601 198.009 168.159 192.223 172.183 186.879C176.188 181.558 180.561 176.8 183.944 173.363C185.632 171.648 187.067 170.269 188.077 169.321C188.582 168.847 188.98 168.482 189.25 168.237C189.385 168.114 189.488 168.022 189.556 167.961L189.632 167.893L189.649 167.877L189.653 167.874L189.653 167.874L189.654 167.873L192.345 165.497L189.181 163.797L162.181 149.297Z" fill="#D9D9D9" stroke="black" stroke-width="5"/>
<path d="M104 162L142.564 149L151 154L131.718 191L104 162Z" fill="black"/>
<path d="M147 145.5L162 150.5C162 150.5 145 164.5 142 171.5C139 178.5 135 169.5 135 169.5L147 145.5Z" fill="black"/>
<path d="M161.005 151.448L161.893 150.5L170 143L192.5 161L187.504 166.5H161.005V151.448Z" fill="#D9D9D9"/>
<rect x="128" y="135" width="12" height="20" fill="black"/>
<circle cx="116.5" cy="152.5" r="12.5" fill="#D9D9D9"/>
<path d="M123 138L128 137.5L129 152H123V138Z" fill="#D9D9D9"/>
<rect x="194.551" y="214.535" width="75.4913" height="28.8142" rx="14.4071" transform="rotate(44 194.551 214.535)" fill="white" stroke="black" stroke-width="5"/>
<defs>
<linearGradient id="paint0_linear_153_907" x1="83.3721" y1="3.29506" x2="222.872" y2="238.499" gradientUnits="userSpaceOnUse">
<stop stop-color="#2667FF"/>
<stop offset="1" stop-color="#D449AF"/>
</linearGradient>
</defs>
</svg>
